<svg viewBox="0 0 370 100" xmlns="http://www.w3.org/2000/svg">
  <defs>
    <linearGradient id="svg-gradient" x1="0%" y1="0%" x2="100%" y2="0%">
      <stop offset="0%" stop-color="#60a5fa" />
      <stop offset="100%" stop-color="#a78bfa" />
    </linearGradient>
  </defs>
  <g
    id="SvgjsG1101"
    transform="matrix(1.1111111111111112,0,0,1.1111111111111112,-5.555555555555555,-5.555555555555555)"
    fill="#fff"
  >
    <path
      d="M5,10.537C5,7.492,7.491,5,10.537,5h38.079v31.946h-9.611L25.916,23.857H5V10.537z M60.286,39.714v20.572H39.714V39.714  H60.286z M5,26.626h19.769l12.177,12.177v9.813H5V26.626z M5,51.384h31.946v9.813L24.769,73.374H5V51.384z M48.615,95H10.537  C7.491,95,5,92.508,5,89.463V76.143h20.916l13.088-13.088h9.611V95z M95,89.463C95,92.508,92.508,95,89.463,95H51.384V63.054h9.612  l13.088,13.088H95V89.463z M95,73.374H75.231L63.054,61.198v-9.813H95V73.374z M95,48.616H63.054v-9.813l12.177-12.177H95V48.616z   M95,23.857H74.084L60.996,36.946h-9.612V5h38.079C92.508,5,95,7.492,95,10.537V23.857z"
      fill="#fff"
    />
  </g>
  <g
    id="SvgjsG1102"
    transform="matrix(2.2801895658085685,0,0,2.2801895658085685,113.4330516149661,-9.362274789702823)"
    fill="url(#svg-gradient)"
  >
    <path d="M17.72 12 c2.72 0 4.96 2.24 4.96 5 l0 18 c0 2.76 -2.24 5 -4.96 5 l-14.84 0 l0 -28 l14.84 0 z M16.28 32.24 l0 -12.48 c0 -0.76 -0.6 -1.32 -1.32 -1.32 l-5.68 0 l0 15.16 l5.68 0 c0.72 0 1.32 -0.6 1.32 -1.36 z M46.040000000000006 18.44 l-11.2 0 l0 4.36 l8.04 0 l0 6.4 l-8.04 0 l0 4.4 l11.2 0 l0 6.4 l-17.6 0 l0 -28 l17.6 0 l0 6.44 z M68.4 12 l6.4 0 l0 28 l-6.4 0 l0 -12.52 l-4.08 9.84 l-2.04 0 l-4.08 -9.84 l0 12.52 l-6.4 0 l0 -28 l6.4 0 l5.08 12.28 z M86.96000000000001 12 l0 28 l-6.4 0 l0 -28 l6.4 0 z M107.52000000000001 12 c2.76 0 5 2.24 5 5 l0 10.52 c0 2.12 -1.32 3.92 -3.16 4.64 l3.16 7.84 l-6.8 0 l-3.04 -7.48 l-3.56 0 l0 7.48 l-6.4 0 l0 -28 l14.8 0 z M104.80000000000001 26.08 c0.72 0 1.32 -0.56 1.32 -1.28 l0 -5.08 c0 -0.72 -0.6 -1.28 -1.32 -1.28 l-5.68 0 l0 7.64 l5.68 0 z"/>
  </g>
</svg>
